<svg{% if include.class %} class="{{ include.class }}"{% endif %}{% if include.width %} width="{{ include.width }}"{% endif %}{% if include.height %} height="{{ include.height }}"{% endif %} viewbox="0 0 400 121" xmlns="https://www.w3.org/2000/svg" focusable="false"><g id="svgg"><path id="path0" d="M46.310 2.017 C 38.665 7.058,35.752 24.072,39.979 39.000 C 43.930 52.952,44.118 52.000,37.413 52.000 C 32.763 52.000,31.850 52.250,32.850 53.250 C 33.601 54.001,36.772 54.500,40.800 54.500 L 47.500 54.500 47.808 51.319 C 47.978 49.570,46.683 43.318,44.931 37.425 C 39.680 19.760,40.825 10.464,48.835 5.750 C 55.696 1.712,63.509 5.149,67.478 13.951 C 69.576 18.603,71.000 19.176,71.000 15.368 C 71.000 5.308,54.693 -3.510,46.310 2.017 M89.413 15.824 C 78.925 19.449,70.219 26.536,63.836 36.642 C 58.935 44.403,57.196 44.605,52.154 38.000 C 48.725 33.508,48.431 34.911,51.524 41.002 C 55.462 48.755,60.232 48.787,64.500 41.089 C 80.670 11.924,112.103 10.400,101.074 39.315 C 99.104 44.479,100.384 45.651,103.888 41.890 C 109.194 36.195,108.988 22.788,103.510 17.310 C 99.679 13.479,97.009 13.198,89.413 15.824 M14.459 23.858 C -5.439 33.004,4.209 53.022,34.267 64.956 C 41.612 67.873,41.665 67.998,37.840 73.425 C 33.543 79.521,34.765 80.150,40.406 74.744 C 48.100 67.372,47.153 65.001,34.746 60.566 C 22.381 56.146,12.437 48.941,10.067 42.685 C 5.862 31.587,15.345 22.871,28.307 25.920 C 31.862 26.756,32.094 26.672,31.807 24.658 C 31.374 21.613,20.439 21.109,14.459 23.858 M270.250 36.870 C 267.363 37.651,265.000 38.727,265.000 39.261 C 265.000 39.796,265.928 39.991,267.061 39.694 C 270.130 38.892,270.429 41.022,268.620 50.780 C 262.055 86.184,262.202 84.140,266.352 82.249 C 268.068 81.467,268.856 80.110,269.235 77.281 C 270.254 69.688,278.199 56.000,281.589 56.000 C 283.359 56.000,283.351 56.992,281.500 66.662 C 279.276 78.283,279.446 81.000,282.396 81.000 C 285.005 81.000,291.463 74.558,290.468 72.948 C 290.151 72.435,288.805 73.249,287.477 74.757 C 284.622 78.001,284.495 77.117,286.500 68.000 C 290.636 49.196,284.452 44.600,274.822 59.322 C 272.600 62.720,271.032 64.600,271.338 63.500 C 272.533 59.211,276.101 37.783,275.809 36.650 C 275.574 35.738,274.245 35.790,270.250 36.870 M301.000 38.000 C 298.060 40.940,298.506 43.583,302.291 45.648 C 303.990 46.575,303.975 46.762,302.006 49.265 C 289.748 64.849,294.378 82.946,310.633 82.985 C 317.305 83.001,318.580 84.199,316.864 88.839 C 316.130 90.823,315.438 91.066,311.263 90.801 C 307.066 90.536,306.500 90.738,306.500 92.500 C 306.500 95.810,314.209 95.882,317.489 92.602 C 324.394 85.697,319.882 76.010,309.750 75.985 C 302.910 75.968,301.861 75.567,300.150 72.316 C 296.217 64.845,302.753 47.099,309.968 45.656 C 313.913 44.867,319.000 41.362,319.000 39.432 C 319.000 37.023,314.562 37.811,310.159 41.000 C 305.385 44.458,304.729 44.583,302.905 42.385 C 301.759 41.004,301.880 40.516,303.740 39.010 C 304.936 38.041,305.634 36.967,305.291 36.624 C 304.224 35.557,303.074 35.926,301.000 38.000 M72.659 39.692 C 67.289 50.078,68.822 51.491,85.500 51.530 C 117.208 51.603,131.164 72.566,104.500 80.068 C 98.678 81.706,98.577 81.792,101.082 82.962 C 107.756 86.079,122.000 76.429,122.000 68.791 C 122.000 55.487,99.914 45.477,79.500 49.529 C 74.287 50.564,72.444 48.265,73.889 42.528 C 75.303 36.911,74.753 35.643,72.659 39.692 M134.000 61.500 L 134.000 86.000 138.375 86.000 C 140.781 86.000,144.156 86.281,145.875 86.625 C 150.704 87.591,150.461 82.637,145.580 80.598 C 140.543 78.493,140.000 76.633,140.000 61.474 L 140.000 47.816 150.853 57.908 C 163.935 70.073,162.000 69.990,174.637 58.927 L 185.000 49.854 185.000 62.205 C 185.000 76.131,184.284 78.091,178.497 80.001 C 171.435 82.332,173.577 86.000,182.000 86.000 L 189.000 86.000 189.000 62.000 C 189.000 46.023,188.652 38.000,187.958 38.000 C 187.385 38.000,181.034 42.958,173.845 49.018 L 160.774 60.035 148.498 48.518 C 141.746 42.183,135.722 37.000,135.111 37.000 C 134.327 37.000,134.000 44.205,134.000 61.500 M369.378 50.437 C 357.791 55.480,358.862 76.732,370.867 79.964 C 377.974 81.878,383.447 80.086,383.810 75.728 C 384.163 71.494,382.137 70.543,380.487 74.168 C 375.918 84.204,368.883 72.097,371.422 58.566 C 372.627 52.139,377.975 49.657,380.182 54.500 C 381.855 58.172,384.000 57.676,384.000 53.617 C 384.000 48.896,376.611 47.289,369.378 50.437 M203.035 51.842 C 198.178 54.446,195.617 59.896,195.688 67.471 C 195.819 81.390,204.775 86.767,213.155 77.958 C 216.059 74.905,217.000 74.361,217.000 75.735 C 217.000 81.100,223.070 83.740,227.794 80.432 C 230.528 78.517,229.748 76.774,226.521 77.584 C 221.088 78.948,219.554 68.017,223.915 59.014 C 227.698 51.204,227.702 51.000,224.079 51.000 C 221.647 51.000,221.049 51.502,220.500 54.000 C 219.740 57.460,218.419 57.895,217.497 54.989 C 216.045 50.416,208.682 48.813,203.035 51.842 M232.785 54.062 C 229.296 57.550,230.242 60.901,233.805 57.676 C 234.824 56.754,237.085 56.000,238.829 56.000 L 242.000 56.000 242.000 67.345 C 242.000 81.731,247.142 86.696,255.139 80.033 C 257.647 77.944,257.475 77.813,252.000 77.622 L 248.500 77.500 248.216 66.750 L 247.932 56.000 253.966 56.000 C 259.736 56.000,260.000 55.890,260.000 53.500 L 260.000 51.000 247.923 51.000 L 235.846 51.000 232.785 54.062 M332.500 52.412 C 321.760 57.185,320.250 74.582,330.072 80.384 C 343.468 88.297,358.367 71.455,349.081 58.896 L 346.940 56.000 351.970 56.000 C 356.669 56.000,357.000 55.835,357.000 53.500 L 357.000 51.000 346.250 51.039 C 339.540 51.064,334.372 51.579,332.500 52.412 M212.877 55.570 C 218.976 63.325,213.687 79.940,205.905 77.470 C 203.254 76.629,202.000 73.105,202.000 66.500 C 202.000 55.155,207.892 49.234,212.877 55.570 M369.006 55.989 C 367.524 58.759,367.480 69.633,368.936 73.389 C 370.332 76.990,369.846 77.592,367.572 75.079 C 363.712 70.815,363.667 61.210,367.478 55.393 C 369.458 52.371,370.686 52.850,369.006 55.989 M343.386 59.401 C 346.201 65.334,345.206 75.827,341.600 78.235 C 332.953 84.008,325.171 65.411,333.306 58.413 C 337.495 54.810,341.388 55.191,343.386 59.401 M78.962 60.250 C 72.205 63.657,72.548 65.201,82.483 76.093 C 92.373 86.936,96.002 93.340,95.996 99.946 C 95.986 112.286,85.815 116.536,73.948 109.158 C 68.176 105.570,66.953 107.285,71.952 111.955 C 78.397 117.976,90.717 118.437,96.288 112.866 C 103.153 106.001,97.691 85.622,85.800 73.731 C 77.403 65.334,77.217 63.738,84.250 60.464 C 89.066 58.222,89.249 58.019,86.462 58.010 C 84.791 58.004,81.416 59.013,78.962 60.250 M6.934 63.709 C -2.078 71.292,-2.093 85.798,6.906 90.451 C 14.582 94.421,33.996 91.365,44.650 84.511 C 52.613 79.387,54.608 79.697,55.651 86.221 C 56.550 91.838,58.085 88.052,57.295 82.166 C 56.126 73.450,52.646 73.534,38.162 82.628 C 24.532 91.186,11.970 91.862,6.066 84.356 C 2.266 79.526,4.885 69.363,11.116 64.756 C 12.702 63.583,14.000 62.259,14.000 61.812 C 14.000 60.061,9.990 61.138,6.934 63.709 M65.914 76.160 C 65.278 77.349,64.132 82.861,63.368 88.410 C 62.389 95.520,61.082 100.336,58.944 104.714 C 50.191 122.640,33.354 121.916,32.185 103.564 C 31.882 98.799,31.439 97.278,30.466 97.652 C 24.851 99.806,30.313 115.525,38.069 119.536 C 51.279 126.367,65.995 110.333,67.744 87.202 C 68.384 78.741,69.134 78.036,75.002 80.384 C 79.469 82.172,80.133 81.380,76.750 78.299 C 71.633 73.639,67.681 72.859,65.914 76.160 " stroke="none" fill="#1e1c4b" fill-rule="evenodd"></path></g></svg>